<mxfile host="app.diagrams.net" modified="2024-01-08T09:19:49.355Z" agent="Mozilla/5.0 (Macintosh; Intel Mac OS X 10_15_7) AppleWebKit/537.36 (KHTML, like Gecko) Chrome/120.0.0.0 Safari/537.36" etag="BBZ963CWqwRt_OBO009a" version="22.1.17" type="device">
  <diagram name="Sida-1" id="mx-uwZBf5vzpxmqzSgdW">
    <mxGraphModel dx="1012" dy="639" grid="1" gridSize="10" guides="1" tooltips="1" connect="1" arrows="1" fold="1" page="1" pageScale="1" pageWidth="827" pageHeight="1169" math="0" shadow="0">
      <root>
        <mxCell id="0" />
        <mxCell id="1" parent="0" />
        <mxCell id="aKNbtQWCYxxm_m_iL5gU-2" value="&lt;font style=&quot;font-size: 10px;&quot;&gt;LOGIN&lt;br&gt;REGISTER&lt;br&gt;CHILD JOIN&lt;br&gt;PARENT JOIN&lt;br&gt;&lt;/font&gt;" style="rounded=0;whiteSpace=wrap;html=1;" vertex="1" parent="1">
          <mxGeometry x="60" y="220" width="100" height="160" as="geometry" />
        </mxCell>
        <mxCell id="aKNbtQWCYxxm_m_iL5gU-6" value="&lt;font style=&quot;font-size: 10px;&quot;&gt;START&lt;br&gt;LIST CHILDREN&lt;br&gt;ADD CHILD&lt;br&gt;ADD PARENT&lt;br&gt;&lt;/font&gt;" style="rounded=0;whiteSpace=wrap;html=1;" vertex="1" parent="1">
          <mxGeometry x="210" y="220" width="100" height="160" as="geometry" />
        </mxCell>
        <mxCell id="aKNbtQWCYxxm_m_iL5gU-7" value="&lt;span style=&quot;font-size: 10px;&quot;&gt;XXXX&lt;/span&gt;" style="rounded=0;whiteSpace=wrap;html=1;" vertex="1" parent="1">
          <mxGeometry x="20" y="990" width="100" height="160" as="geometry" />
        </mxCell>
        <mxCell id="aKNbtQWCYxxm_m_iL5gU-8" value="&lt;span style=&quot;font-size: 10px;&quot;&gt;ADD CHILD&lt;/span&gt;" style="rounded=0;whiteSpace=wrap;html=1;" vertex="1" parent="1">
          <mxGeometry x="350" y="220" width="100" height="160" as="geometry" />
        </mxCell>
        <mxCell id="aKNbtQWCYxxm_m_iL5gU-9" value="&lt;span style=&quot;font-size: 10px;&quot;&gt;ADD PARENT&lt;/span&gt;" style="rounded=0;whiteSpace=wrap;html=1;" vertex="1" parent="1">
          <mxGeometry x="350" y="410" width="100" height="160" as="geometry" />
        </mxCell>
        <mxCell id="aKNbtQWCYxxm_m_iL5gU-10" value="&lt;span style=&quot;font-size: 10px;&quot;&gt;VIEW CHILD&lt;/span&gt;" style="rounded=0;whiteSpace=wrap;html=1;" vertex="1" parent="1">
          <mxGeometry x="350" y="20" width="100" height="160" as="geometry" />
        </mxCell>
        <mxCell id="aKNbtQWCYxxm_m_iL5gU-11" value="" style="endArrow=classic;html=1;rounded=0;exitX=1;exitY=0.5;exitDx=0;exitDy=0;entryX=0;entryY=0.5;entryDx=0;entryDy=0;" edge="1" parent="1" source="aKNbtQWCYxxm_m_iL5gU-2" target="aKNbtQWCYxxm_m_iL5gU-6">
          <mxGeometry width="50" height="50" relative="1" as="geometry">
            <mxPoint x="300" y="300" as="sourcePoint" />
            <mxPoint x="350" y="250" as="targetPoint" />
          </mxGeometry>
        </mxCell>
        <mxCell id="aKNbtQWCYxxm_m_iL5gU-12" value="" style="endArrow=classic;html=1;rounded=0;exitX=1;exitY=0.5;exitDx=0;exitDy=0;entryX=0;entryY=0;entryDx=0;entryDy=0;" edge="1" parent="1" target="aKNbtQWCYxxm_m_iL5gU-6">
          <mxGeometry width="50" height="50" relative="1" as="geometry">
            <mxPoint x="120" y="170" as="sourcePoint" />
            <mxPoint x="170" y="170" as="targetPoint" />
          </mxGeometry>
        </mxCell>
        <mxCell id="aKNbtQWCYxxm_m_iL5gU-13" value="" style="endArrow=classic;html=1;rounded=0;exitX=1;exitY=0;exitDx=0;exitDy=0;entryX=0.02;entryY=0.594;entryDx=0;entryDy=0;entryPerimeter=0;" edge="1" parent="1" source="aKNbtQWCYxxm_m_iL5gU-6" target="aKNbtQWCYxxm_m_iL5gU-10">
          <mxGeometry width="50" height="50" relative="1" as="geometry">
            <mxPoint x="270" y="130" as="sourcePoint" />
            <mxPoint x="320" y="130" as="targetPoint" />
          </mxGeometry>
        </mxCell>
        <mxCell id="aKNbtQWCYxxm_m_iL5gU-14" value="" style="endArrow=classic;html=1;rounded=0;exitX=1;exitY=0.5;exitDx=0;exitDy=0;entryX=0;entryY=0.5;entryDx=0;entryDy=0;" edge="1" parent="1" source="aKNbtQWCYxxm_m_iL5gU-6" target="aKNbtQWCYxxm_m_iL5gU-8">
          <mxGeometry width="50" height="50" relative="1" as="geometry">
            <mxPoint x="170" y="310" as="sourcePoint" />
            <mxPoint x="220" y="310" as="targetPoint" />
          </mxGeometry>
        </mxCell>
        <mxCell id="aKNbtQWCYxxm_m_iL5gU-15" value="" style="endArrow=classic;html=1;rounded=0;exitX=1;exitY=1;exitDx=0;exitDy=0;entryX=0;entryY=0.5;entryDx=0;entryDy=0;" edge="1" parent="1" source="aKNbtQWCYxxm_m_iL5gU-6" target="aKNbtQWCYxxm_m_iL5gU-9">
          <mxGeometry width="50" height="50" relative="1" as="geometry">
            <mxPoint x="320" y="310" as="sourcePoint" />
            <mxPoint x="360" y="310" as="targetPoint" />
          </mxGeometry>
        </mxCell>
        <mxCell id="aKNbtQWCYxxm_m_iL5gU-16" value="&lt;span style=&quot;font-size: 10px;&quot;&gt;CHILD&lt;/span&gt;" style="rounded=0;whiteSpace=wrap;html=1;" vertex="1" parent="1">
          <mxGeometry x="160" y="450" width="100" height="160" as="geometry" />
        </mxCell>
        <mxCell id="aKNbtQWCYxxm_m_iL5gU-17" value="" style="endArrow=classic;html=1;rounded=0;exitX=0.5;exitY=1;exitDx=0;exitDy=0;entryX=0;entryY=0;entryDx=0;entryDy=0;" edge="1" parent="1" source="aKNbtQWCYxxm_m_iL5gU-2" target="aKNbtQWCYxxm_m_iL5gU-16">
          <mxGeometry width="50" height="50" relative="1" as="geometry">
            <mxPoint x="170" y="310" as="sourcePoint" />
            <mxPoint x="220" y="310" as="targetPoint" />
          </mxGeometry>
        </mxCell>
        <mxCell id="aKNbtQWCYxxm_m_iL5gU-19" value="&lt;h1&gt;API&lt;/h1&gt;&lt;p&gt;/register&lt;br&gt;/login&lt;br&gt;/loadchildren&lt;br&gt;/addchild&lt;br&gt;/addparent&lt;br&gt;/updatechild&lt;br&gt;/givemoney&lt;br&gt;/spendmoney&lt;br&gt;/childjoin&lt;br&gt;/parentjoin&lt;br&gt;/childinfo&lt;br&gt;/removechild&lt;br&gt;/removeparent&lt;/p&gt;&lt;p&gt;&lt;br&gt;&lt;/p&gt;" style="text;html=1;strokeColor=default;fillColor=default;spacing=5;spacingTop=-20;whiteSpace=wrap;overflow=hidden;rounded=0;" vertex="1" parent="1">
          <mxGeometry x="70" y="640" width="180" height="340" as="geometry" />
        </mxCell>
        <mxCell id="aKNbtQWCYxxm_m_iL5gU-27" value="CHILD&lt;br&gt;name&lt;br&gt;money&lt;br&gt;getmoney&lt;br&gt;howoften&lt;br&gt;invitecode" style="rounded=0;whiteSpace=wrap;html=1;" vertex="1" parent="1">
          <mxGeometry x="280" y="640" width="110" height="170" as="geometry" />
        </mxCell>
        <mxCell id="aKNbtQWCYxxm_m_iL5gU-28" value="PARENT&lt;br&gt;name&lt;br&gt;invitecode" style="rounded=0;whiteSpace=wrap;html=1;" vertex="1" parent="1">
          <mxGeometry x="414" y="640" width="106" height="170" as="geometry" />
        </mxCell>
      </root>
    </mxGraphModel>
  </diagram>
</mxfile>
